<svg class="img-fluid" id="outputsvg" xmlns="http://www.w3.org/2000/svg" style="transform: matrix(0.856831, 0, 0, 0.856831, 0, 0); transform-origin: 50% 50%; cursor: move; transition: transform 200ms ease-in-out 0s;" width="556" height="86" viewBox="0 0 5560 860">
	<g id="l1cL5e6AK7k0QkSg5yhxkdm" fill="none" style="transform: none;">
		<g style="transform: none;">
			<path id="pqePV0A5Q" d="M0 430 l0 -430 2780 0 2780 0 0 430 0 430 -2780 0 -2780 0 0 -430z m3749 296 c37 -19 105 -95 130 -145 37 -71 29 -98 -51 -190 -35 -40 -38 -49 -38 -104 0 -56 2 -62 38 -96 20 -20 51 -46 67 -58 28 -20 29 -22 13 -38 -21 -23 -54 -15 -109 28 -42 31 -91 99 -103 143 -5 15 9 45 49 105 51 79 55 88 55 146 l0 62 -61 66 c-51 54 -59 68 -49 80 15 19 24 19 59 1z m512 -11 c26 -24 15 -35 -35 -35 -28 0 -52 -7 -67 -19 -22 -18 -24 -26 -23 -108 0 -48 4 -118 8 -155 6 -58 10 -68 27 -68 11 0 36 -7 57 -16 35 -15 36 -16 18 -30 -11 -8 -35 -14 -53 -14 l-34 0 3 -65 c2 -49 -2 -69 -14 -81 -15 -15 -17 -14 -32 14 -9 17 -19 55 -24 84 -6 42 -11 53 -27 56 -32 5 -95 34 -90 42 3 4 23 10 45 14 l40 6 -2 149 c-1 131 1 152 18 182 38 65 135 88 185 44z m318 -20 c74 -67 106 -189 76 -291 -21 -71 -86 -144 -129 -144 -88 0 -169 122 -168 251 1 99 84 219 152 219 20 0 43 -11 69 -35z m259 -18 c6 -17 13 -77 17 -131 7 -103 18 -137 54 -170 17 -16 31 -18 85 -14 66 6 89 -3 79 -29 -6 -16 -55 -43 -77 -43 -8 0 -31 14 -49 30 -24 21 -45 30 -69 30 -30 0 -36 -4 -47 -35 -16 -45 -28 -44 -48 3 -12 30 -15 65 -11 182 7 190 37 273 66 177z m517 14 c39 -17 105 -81 105 -101 0 -15 -7 -13 -56 16 -37 22 -53 26 -96 22 -58 -6 -78 -24 -78 -74 0 -29 4 -32 45 -44 65 -18 122 -63 147 -115 21 -43 21 -46 5 -80 -19 -40 -69 -75 -108 -75 -63 0 -140 91 -164 192 -22 96 20 198 105 256 40 26 44 27 95 3z m-5147 -111 c2 -46 8 -90 14 -97 7 -9 37 -13 92 -13 94 0 145 -22 183 -79 37 -54 31 -94 -21 -145 -55 -55 -109 -69 -261 -64 l-110 3 -3 230 c-1 126 0 236 3 243 3 9 20 12 52 10 l48 -3 3 -85z m542 -20 l5 -105 100 0 100 0 5 105 5 105 50 0 50 0 0 -240 0 -240 -50 0 -50 0 -3 98 -3 98 -102 -3 -102 -3 -3 -98 -3 -98 -52 3 -52 3 -3 230 c-1 126 0 236 3 243 3 9 20 12 52 10 l48 -3 5 -105z m540 55 l25 -50 91 -3 c119 -4 137 4 154 62 l13 46 49 0 c44 0 49 -2 43 -17 -4 -10 -24 -67 -45 -128 -21 -60 -47 -137 -59 -170 -12 -33 -29 -80 -38 -105 -22 -65 -29 -70 -89 -70 -62 0 -61 -1 -104 124 -15 45 -51 145 -79 224 l-51 143 33 -3 c27 -3 36 -10 57 -53z m618 -57 l3 -108 54 0 c32 0 57 5 62 12 4 7 24 56 43 108 l35 95 48 3 c26 2 47 1 47 -2 0 -2 -16 -39 -35 -80 -43 -94 -47 -148 -10 -172 32 -21 65 -75 65 -107 0 -33 -43 -83 -89 -104 -28 -13 -70 -17 -181 -17 l-145 -1 -3 243 -2 243 52 -3 53 -3 3 -107z m510 -51 l3 -158 37 3 37 3 50 155 c47 143 53 155 75 155 23 0 28 -11 75 -157 l49 -158 38 0 37 0 3 158 3 157 50 0 50 0 0 -240 0 -240 -78 -3 c-49 -2 -84 1 -93 9 -8 6 -23 43 -35 83 -40 133 -47 146 -83 146 -32 0 -32 0 -72 -117 l-39 -118 -90 0 -90 0 -3 230 c-1 126 0 236 3 243 3 8 17 12 37 10 l33 -3 3 -158z m732 108 l25 -50 91 -3 c119 -4 137 4 154 62 l13 46 49 0 c44 0 49 -2 43 -17 -4 -10 -24 -67 -45 -128 -21 -60 -47 -137 -59 -170 -12 -33 -29 -80 -38 -105 -22 -65 -29 -70 -89 -70 -62 0 -61 -1 -104 124 -15 45 -51 145 -79 224 l-51 143 33 -3 c27 -3 36 -10 57 -53z"></path>
			<path id="pOdYM71mj" d="M4467 653 c-43 -48 -49 -239 -9 -292 23 -32 81 -40 105 -16 50 49 49 274 -1 313 -23 18 -76 15 -95 -5z"></path>
			<path id="pEaGUyYQI" d="M5232 400 c6 -80 24 -100 93 -100 39 0 54 4 59 16 9 24 7 73 -4 93 -12 23 -80 51 -121 51 l-31 0 4 -60z"></path>
			<path id="p1GZ8XmVc4" d="M212 328 l3 -83 81 0 c103 0 114 8 114 84 0 31 -5 62 -12 69 -8 8 -45 12 -100 12 l-89 0 3 -82z"></path>
			<path id="pOGg8DMi7" d="M1347 493 c-12 -12 -7 -66 10 -113 23 -64 31 -71 70 -68 32 3 36 7 54 58 22 62 24 101 7 118 -13 13 -130 17 -141 5z"></path>
			<path id="pRUDbkx97" d="M1910 315 l0 -85 73 0 c104 0 121 12 125 82 4 79 -7 88 -114 88 l-84 0 0 -85z"></path>
			<path id="pil9f6cjh" d="M3207 493 c-12 -12 -7 -66 10 -113 23 -64 31 -71 70 -68 32 3 36 7 54 58 22 62 24 101 7 118 -13 13 -130 17 -141 5z"></path>
		</g>
	</g>
	<g id="l77VNzaD9gVO1elIkBbIKMq" fill="rgb(255,224,46)" style="transform: none;">
		<g style="transform: none;">
			<path id="p11GJ1iJCS" d="M75 688 c-3 -7 -4 -130 -3 -273 l3 -260 140 -3 c183 -4 234 7 290 62 47 48 61 97 45 158 -25 87 -90 128 -208 128 -53 0 -83 4 -90 13 -6 7 -12 51 -14 97 l-3 85 -78 3 c-57 2 -79 -1 -82 -10z m293 -320 c17 -17 15 -63 -4 -79 -9 -7 -39 -13 -68 -14 l-51 0 -3 53 -3 52 58 0 c33 0 64 -5 71 -12z"></path>
			<path id="piRj1VJ1N" d="M615 688 c-3 -7 -4 -130 -3 -273 l3 -260 82 -3 82 -3 3 98 3 98 72 3 72 3 3 -98 3 -98 80 0 80 0 0 270 0 270 -80 0 -80 0 -5 -105 -5 -105 -70 0 -70 0 -5 105 -5 105 -78 3 c-57 2 -79 -1 -82 -10z"></path>
			<path id="pZp9hh2Gh" d="M1160 686 c0 -16 164 -486 181 -517 8 -16 21 -19 93 -19 55 0 87 4 93 12 11 13 34 77 102 273 21 61 49 137 61 170 34 94 37 90 -61 93 l-86 3 -13 -46 c-16 -56 -37 -67 -124 -63 l-61 3 -25 50 -25 50 -67 3 c-55 2 -68 0 -68 -12z m297 -227 c9 -9 8 -21 -2 -48 -7 -20 -16 -45 -19 -55 -5 -15 -9 -17 -18 -8 -16 16 -48 103 -42 114 8 12 68 10 81 -3z"></path>
			<path id="pVBJzc7IP" d="M1770 696 c-3 -2 -3 -125 0 -273 l5 -268 170 0 c123 0 180 4 205 14 118 47 141 171 49 260 -21 21 -39 42 -39 45 0 4 18 45 40 93 61 130 62 128 -40 128 l-85 0 -35 -95 c-43 -116 -45 -120 -75 -120 -24 0 -24 1 -27 108 l-3 107 -80 3 c-45 1 -83 1 -85 -2z m295 -342 c23 -23 15 -66 -15 -81 -14 -7 -44 -13 -67 -13 l-43 0 0 55 0 55 54 0 c37 0 60 -5 71 -16z"></path>
			<path id="p6wtjn0fC" d="M2315 688 c-3 -7 -4 -130 -3 -273 l3 -260 120 0 120 0 39 117 c25 75 43 113 48 105 5 -6 22 -56 39 -109 16 -53 36 -101 43 -108 9 -7 53 -10 122 -8 l109 3 0 270 0 270 -80 0 -80 0 -3 -157 c-1 -87 -6 -158 -10 -158 -4 0 -30 71 -57 158 l-50 157 -55 0 -54 0 -46 -140 c-25 -77 -50 -149 -55 -160 -7 -14 -11 27 -15 140 l-5 160 -63 3 c-44 2 -64 -1 -67 -10z"></path>
			<path id="p13e6Gwtmn" d="M3020 686 c0 -16 164 -486 181 -517 8 -16 21 -19 93 -19 93 0 96 2 119 70 9 25 26 72 38 105 77 215 126 364 121 369 -3 3 -42 6 -87 6 l-82 0 -13 -46 c-16 -55 -38 -66 -124 -62 l-61 3 -25 50 -25 50 -67 3 c-55 2 -68 0 -68 -12z m297 -227 c9 -9 8 -21 -2 -48 -7 -20 -16 -45 -19 -55 -5 -15 -9 -17 -18 -8 -16 16 -48 103 -42 114 8 12 68 10 81 -3z"></path>
		</g>
	</g>
	<g id="l6kZZBUOqzIK1vBNJHQbMgH" fill="rgb(0,128,0)" style="transform: none;">
		<g style="transform: none;">
			<path id="pcavelSpB" d="M3654 745 c-22 -34 -11 -59 57 -133 77 -82 77 -99 4 -211 -64 -98 -69 -130 -29 -209 61 -123 212 -190 260 -116 24 35 10 69 -40 104 -101 69 -109 109 -36 195 75 89 84 147 38 238 -24 48 -93 124 -129 143 -16 8 -46 14 -68 14 -32 0 -44 -5 -57 -25z"></path>
			<path id="p16YD5z9ph" d="M4100 752 c-64 -32 -75 -67 -73 -235 l1 -147 -39 -6 c-43 -7 -64 -32 -54 -63 5 -18 60 -47 100 -53 16 -3 21 -14 27 -56 15 -104 65 -150 111 -103 18 18 22 33 22 86 0 65 0 65 28 65 40 0 87 27 87 50 0 26 -45 59 -91 66 -37 6 -37 7 -44 63 -3 31 -7 87 -7 125 -1 61 1 71 22 88 18 15 32 18 61 13 33 -6 40 -3 55 20 16 25 16 30 3 54 -8 14 -26 31 -39 38 -37 19 -129 16 -170 -5z"></path>
			<path id="p1CBPKaLQ2" d="M4466 760 c-42 -13 -91 -65 -117 -124 -25 -59 -31 -173 -11 -243 21 -71 71 -135 123 -157 65 -26 112 -16 165 38 128 127 79 443 -76 486 -40 11 -45 11 -84 0z m93 -184 c20 -79 8 -167 -26 -202 -16 -15 -18 -15 -39 9 -42 49 -40 190 3 239 23 26 48 7 62 -46z"></path>
			<path id="pAFy1FAYu" d="M4787 748 c-31 -24 -40 -73 -45 -244 -5 -184 3 -235 40 -255 31 -17 64 -3 78 33 8 18 15 35 16 37 2 2 19 -10 39 -28 29 -25 45 -31 81 -31 56 0 102 23 110 54 17 70 -20 102 -98 84 -42 -10 -50 -9 -69 8 -36 33 -47 67 -54 170 -8 115 -19 160 -45 174 -24 13 -33 13 -53 -2z"></path>
			<path id="pcrxSCNu9" d="M5230 718 c-53 -37 -88 -88 -106 -158 -21 -84 -7 -174 39 -251 56 -94 133 -127 215 -93 154 64 106 274 -72 324 -39 11 -44 15 -36 30 18 33 57 33 116 0 57 -33 90 -36 107 -9 15 23 1 64 -36 105 -62 72 -164 95 -227 52z m106 -318 c2 0 8 -9 14 -19 14 -27 2 -51 -25 -51 -28 0 -53 28 -61 69 l-7 32 38 -15 c21 -9 39 -16 41 -16z"></path>
		</g>
	</g>
</svg>